<?xml version="1.0" standalone="no"?>
<!DOCTYPE svg PUBLIC "-//W3C//DTD SVG 20010904//EN"
 "http://www.w3.org/TR/2001/REC-SVG-20010904/DTD/svg10.dtd">
<svg version="1.0" xmlns="http://www.w3.org/2000/svg"
 width="260.000000pt" height="260.000000pt" viewBox="0 0 260.000000 260.000000"
 preserveAspectRatio="xMidYMid meet">
<metadata>
Created by potrace 1.11, written by Peter Selinger 2001-2013
</metadata>
<g transform="translate(0.000000,260.000000) scale(0.100000,-0.100000)"
fill="#000000" stroke="none">
<path d="M1605 2363 c-22 -8 -47 -16 -55 -18 -8 -2 -34 -10 -58 -19 -23 -8
-44 -15 -47 -16 -10 0 -26 -5 -45 -13 -25 -10 -85 -27 -93 -27 -4 0 -21 -7
-37 -15 -16 -8 -33 -15 -37 -16 -21 0 -89 -24 -95 -34 -4 -5 -8 -7 -8 -3 0 4
-11 3 -25 -2 -14 -5 -36 -12 -48 -14 -12 -3 -56 -17 -97 -31 -41 -15 -79 -28
-85 -29 -66 -18 -105 -31 -105 -37 0 -4 -8 -6 -17 -4 -10 1 -30 -4 -45 -12
-15 -7 -30 -13 -33 -13 -3 -1 -10 -2 -17 -4 -7 -3 -26 -9 -43 -14 -16 -5 -28
-13 -27 -18 2 -5 8 -8 13 -7 5 2 9 -4 9 -12 0 -8 6 -15 13 -15 8 0 22 -9 32
-20 19 -21 75 -28 75 -9 0 5 4 8 10 4 5 -3 26 1 46 10 20 8 40 12 45 9 5 -3 9
-1 9 4 0 6 16 13 36 17 20 3 48 11 63 17 14 6 31 12 36 14 6 1 35 11 65 22 30
10 58 19 63 20 4 0 45 12 90 27 102 33 106 34 115 36 4 1 28 10 55 20 26 10
47 16 47 13 0 -4 7 -1 15 6 8 7 15 9 15 5 0 -4 7 -2 15 5 8 7 22 10 30 6 8 -3
15 -1 15 4 0 5 16 12 35 16 19 3 35 9 35 13 0 4 8 7 18 8 35 3 72 23 73 40 0
10 1 35 2 55 2 45 -6 50 -58 31z"/>
<path d="M1820 2252 c0 -7 -16 -11 -57 -14 -7 -1 -13 -5 -13 -10 0 -4 -7 -8
-15 -8 -9 0 -47 -11 -85 -24 -39 -14 -71 -25 -73 -25 -1 0 -9 -2 -17 -5 -27
-9 -244 -77 -280 -88 -19 -6 -39 -13 -45 -17 -5 -3 -16 -7 -22 -8 -7 -2 -19
-4 -25 -6 -7 -1 -19 -6 -25 -10 -7 -5 -13 -5 -13 -1 0 3 -6 2 -12 -4 -7 -5
-29 -13 -48 -18 -47 -11 -34 -6 -115 -37 -16 -7 -32 -12 -35 -13 -22 -3 -98
-26 -110 -33 -9 -5 -30 -12 -48 -16 -29 -6 -46 -25 -22 -25 11 0 16 -3 63 -45
33 -29 29 -29 95 -10 29 9 54 15 57 15 3 0 19 7 35 15 17 9 30 13 30 9 0 -4 6
-2 13 3 14 11 108 39 120 35 4 -1 7 2 7 6 0 5 6 9 13 10 14 1 51 10 55 12 1 2
5 3 10 4 4 1 21 6 37 13 59 22 70 26 80 28 6 0 17 4 25 7 8 4 40 14 70 23 30
9 62 19 70 22 8 3 20 7 25 9 6 1 48 15 95 30 47 15 91 27 98 25 6 -1 12 3 12
9 0 7 6 10 12 8 7 -3 24 1 38 9 22 11 25 19 25 67 1 37 -4 57 -12 60 -7 3 -13
2 -13 -2z"/>
<path d="M1932 2107 c-26 -10 -54 -20 -62 -22 -8 -2 -64 -20 -125 -40 -129
-43 -121 -40 -162 -50 -18 -4 -33 -12 -33 -17 0 -5 -4 -7 -9 -3 -5 3 -31 -3
-58 -14 -26 -10 -50 -19 -53 -19 -3 0 -12 -3 -20 -6 -43 -14 -264 -84 -278
-87 -4 -1 -44 -15 -90 -31 -46 -15 -90 -28 -98 -28 -31 0 -14 -25 48 -69 30
-22 51 -30 60 -25 7 5 22 10 33 11 11 2 24 8 29 13 4 4 15 6 22 3 8 -3 14 -1
14 4 0 5 6 10 13 10 17 0 160 45 172 54 6 4 22 10 35 13 14 2 66 18 115 34 76
25 289 93 305 97 3 1 13 5 22 9 9 4 23 9 32 10 8 1 19 5 22 9 4 4 16 7 26 7
18 0 19 -18 16 -582 -3 -571 -3 -584 -25 -640 -12 -32 -19 -58 -17 -58 3 0 -4
-12 -15 -26 -12 -15 -21 -31 -21 -35 0 -5 -10 -21 -22 -36 -31 -38 -138 -144
-138 -137 0 3 -12 -3 -27 -14 -30 -20 -123 -61 -157 -68 -28 -7 -38 -10 -56
-17 -60 -27 -142 -25 -212 4 -30 12 -88 64 -88 79 0 5 -3 10 -7 12 -5 1 -15
19 -24 38 -12 26 -16 66 -16 162 0 110 -3 131 -19 153 -10 14 -24 25 -31 25
-7 0 -13 5 -13 10 0 6 -7 10 -15 10 -7 0 -18 7 -23 17 -9 15 -10 14 -15 -3 -3
-10 -4 -95 -3 -189 3 -175 14 -235 53 -277 9 -10 13 -18 8 -18 -4 0 10 -18 31
-40 40 -41 126 -97 164 -105 11 -3 30 -8 42 -11 32 -8 140 -6 147 3 3 5 12 9
19 11 7 1 20 4 30 6 9 1 24 6 32 9 8 3 33 11 55 17 46 14 148 59 155 69 3 3
18 13 33 20 49 26 153 135 195 207 43 71 85 178 75 188 -4 3 -2 6 3 6 6 0 11
10 12 23 2 12 4 320 6 684 l2 662 -23 -1 c-13 -2 -44 -11 -71 -21z"/>
<path d="M1780 1873 c-14 -7 -32 -13 -40 -13 -13 0 -15 -61 -15 -488 1 -469
-2 -525 -25 -588 -6 -16 -11 -30 -10 -32 2 -6 -35 -62 -42 -62 -4 0 -8 -4 -8
-10 0 -19 -76 -82 -135 -110 -33 -16 -111 -45 -173 -64 -134 -42 -136 -43
-117 -62 38 -39 138 -64 175 -44 12 6 29 13 39 15 34 6 156 58 186 78 45 31
124 110 125 125 0 6 5 12 10 12 6 0 10 6 10 14 0 8 4 16 8 18 10 4 55 97 57
118 1 8 6 31 10 50 5 19 9 265 9 547 1 508 1 512 -19 511 -11 -1 -31 -8 -45
-15z"/>
<path d="M1636 1832 c-3 -5 -25 -14 -49 -20 l-43 -11 -1 -453 c-1 -249 -2
-453 -3 -453 -1 0 -3 -11 -6 -24 -4 -24 -38 -86 -59 -107 -27 -28 -97 -63
-165 -83 -41 -12 -84 -27 -95 -32 -12 -6 -29 -11 -39 -13 -23 -3 -34 -22 -31
-55 5 -58 24 -87 40 -61 4 6 11 8 16 4 5 -3 16 0 24 6 8 6 19 9 25 5 5 -3 10
-1 10 4 0 6 8 11 18 11 28 0 162 48 208 75 34 20 75 60 126 123 12 16 37 93
44 137 3 17 5 234 5 484 1 419 -4 497 -25 463z"/>
<path d="M597 953 c1 -104 2 -188 3 -188 2 0 4 -9 5 -20 2 -24 56 -135 64
-135 4 0 15 -14 25 -30 9 -17 22 -28 27 -25 5 4 9 1 9 -4 0 -6 5 -11 11 -11 5
0 7 4 4 10 -3 5 -8 19 -11 30 -2 11 -7 30 -10 43 -3 12 -7 116 -8 231 l-1 209
-50 38 c-28 21 -55 39 -60 39 -6 0 -9 -68 -8 -187z"/>
<path d="M778 999 c-2 -6 -1 -38 2 -71 3 -32 2 -61 -2 -64 -4 -3 -3 -16 2 -29
6 -15 6 -27 -1 -30 -6 -4 -6 -13 0 -23 5 -9 6 -25 2 -36 -11 -30 12 -154 39
-205 12 -24 32 -54 45 -67 13 -12 22 -24 20 -26 -2 -2 9 -12 23 -22 25 -19 25
-19 18 0 -4 10 -9 27 -11 37 -2 10 -7 26 -9 35 -6 17 -10 227 -6 247 1 6 1 15
0 20 -1 6 -2 45 -2 87 0 76 0 78 -31 100 -18 12 -33 26 -35 30 -2 4 -10 8 -18
8 -8 0 -14 5 -14 10 0 13 -17 13 -22 -1z"/>
</g>
</svg>
